<svg width="256" height="256" viewBox="0 0 256 256" fill="none" xmlns="http://www.w3.org/2000/svg">
<rect width="256" height="256" rx="128" fill="white"/>
<rect x="60" y="60" width="135" height="135" rx="23" fill="#EADDFF"/>
<path d="M103 36.3333V61.3333M153 36.3333V61.3333M103 194.667V219.667M153 194.667V219.667M194.667 103H219.667M194.667 144.667H219.667M36.3333 103H61.3333M36.3333 144.667H61.3333M78 61.3333H178C187.205 61.3333 194.667 68.7952 194.667 78V178C194.667 187.205 187.205 194.667 178 194.667H78C68.7952 194.667 61.3333 187.205 61.3333 178V78C61.3333 68.7952 68.7952 61.3333 78 61.3333Z" stroke="#6750A4" stroke-width="11" stroke-linecap="round" stroke-linejoin="round"/>
<mask id="path-4-outside-1_1_2" maskUnits="userSpaceOnUse" x="90" y="95" width="73" height="64" fill="black">
<rect fill="white" x="90" y="95" width="73" height="64"/>
<path d="M93.944 117.344L91.64 115.68L91.512 114.784C92.7067 109.067 95.1387 104.885 98.808 102.24C102.563 99.5093 107.811 98.144 114.552 98.144H148.088C151.843 98.144 155.896 97.632 160.248 96.608L161.272 97.632C160.76 99.2533 160.163 100.832 159.48 102.368C158.797 103.819 158.072 105.397 157.304 107.104L156.152 108H114.424C110.755 108 107.811 108.256 105.592 108.768C103.373 109.195 101.496 110.091 99.96 111.456C98.424 112.736 96.7173 114.699 94.84 117.344H93.944ZM115.32 157.664C113.101 157.152 111.181 156.683 109.56 156.256C107.939 155.915 106.445 155.488 105.08 154.976L104.44 153.184C111.267 137.227 115.32 120.245 116.6 102.24L122.488 103.648L115.32 157.664ZM149.112 157.152C144.333 157.237 140.664 155.616 138.104 152.288C135.544 148.875 134.392 144.181 134.648 138.208L136.312 103.904H144.888L140.792 130.784C140.28 134.368 140.536 137.269 141.56 139.488C142.584 141.707 144.461 143.243 147.192 144.096C150.008 144.864 153.677 145.035 158.2 144.608L158.968 145.504C158.883 146.869 158.243 148.491 157.048 150.368C155.853 152.16 154.488 153.739 152.952 155.104C151.501 156.469 150.221 157.152 149.112 157.152Z"/>
</mask>
<path d="M93.944 117.344L91.64 115.68L91.512 114.784C92.7067 109.067 95.1387 104.885 98.808 102.24C102.563 99.5093 107.811 98.144 114.552 98.144H148.088C151.843 98.144 155.896 97.632 160.248 96.608L161.272 97.632C160.76 99.2533 160.163 100.832 159.48 102.368C158.797 103.819 158.072 105.397 157.304 107.104L156.152 108H114.424C110.755 108 107.811 108.256 105.592 108.768C103.373 109.195 101.496 110.091 99.96 111.456C98.424 112.736 96.7173 114.699 94.84 117.344H93.944ZM115.32 157.664C113.101 157.152 111.181 156.683 109.56 156.256C107.939 155.915 106.445 155.488 105.08 154.976L104.44 153.184C111.267 137.227 115.32 120.245 116.6 102.24L122.488 103.648L115.32 157.664ZM149.112 157.152C144.333 157.237 140.664 155.616 138.104 152.288C135.544 148.875 134.392 144.181 134.648 138.208L136.312 103.904H144.888L140.792 130.784C140.28 134.368 140.536 137.269 141.56 139.488C142.584 141.707 144.461 143.243 147.192 144.096C150.008 144.864 153.677 145.035 158.2 144.608L158.968 145.504C158.883 146.869 158.243 148.491 157.048 150.368C155.853 152.16 154.488 153.739 152.952 155.104C151.501 156.469 150.221 157.152 149.112 157.152Z" fill="#6750A4"/>
<path d="M93.944 117.344L93.3585 118.155L93.6206 118.344H93.944V117.344ZM91.64 115.68L90.6501 115.821L90.7101 116.242L91.0545 116.491L91.64 115.68ZM91.512 114.784L90.5331 114.579L90.4972 114.751L90.5221 114.925L91.512 114.784ZM98.808 102.24L99.3928 103.051L99.3962 103.049L98.808 102.24ZM160.248 96.608L160.955 95.9009L160.561 95.507L160.019 95.6346L160.248 96.608ZM161.272 97.632L162.226 97.9331L162.408 97.3542L161.979 96.9249L161.272 97.632ZM159.48 102.368L160.385 102.794L160.389 102.784L160.394 102.774L159.48 102.368ZM157.304 107.104L157.918 107.893L158.114 107.741L158.216 107.514L157.304 107.104ZM156.152 108V109H156.495L156.766 108.789L156.152 108ZM105.592 108.768L105.781 109.75L105.799 109.747L105.817 109.742L105.592 108.768ZM99.96 111.456L100.6 112.224L100.612 112.214L100.624 112.203L99.96 111.456ZM94.84 117.344V118.344H95.3566L95.6555 117.923L94.84 117.344ZM115.32 157.664L115.095 158.638L116.167 158.886L116.311 157.796L115.32 157.664ZM109.56 156.256L109.814 155.289L109.79 155.283L109.766 155.277L109.56 156.256ZM105.08 154.976L104.138 155.312L104.294 155.749L104.729 155.912L105.08 154.976ZM104.44 153.184L103.521 152.791L103.366 153.151L103.498 153.52L104.44 153.184ZM116.6 102.24L116.833 101.267L115.686 100.993L115.603 102.169L116.6 102.24ZM122.488 103.648L123.479 103.78L123.598 102.885L122.721 102.675L122.488 103.648ZM149.112 157.152V156.152H149.103L149.094 156.152L149.112 157.152ZM138.104 152.288L137.304 152.888L137.311 152.898L138.104 152.288ZM134.648 138.208L133.649 138.16L133.649 138.165L134.648 138.208ZM136.312 103.904V102.904H135.359L135.313 103.856L136.312 103.904ZM144.888 103.904L145.877 104.055L146.052 102.904H144.888V103.904ZM140.792 130.784L139.803 130.633L139.802 130.643L140.792 130.784ZM141.56 139.488L142.468 139.069V139.069L141.56 139.488ZM147.192 144.096L146.894 145.05L146.911 145.056L146.929 145.061L147.192 144.096ZM158.2 144.608L158.959 143.957L158.622 143.564L158.106 143.612L158.2 144.608ZM158.968 145.504L159.966 145.566L159.991 145.161L159.727 144.853L158.968 145.504ZM157.048 150.368L157.88 150.923L157.886 150.914L157.892 150.905L157.048 150.368ZM152.952 155.104L152.288 154.357L152.277 154.366L152.267 154.376L152.952 155.104ZM93.944 117.344L94.5295 116.533L92.2255 114.869L91.64 115.68L91.0545 116.491L93.3585 118.155L93.944 117.344ZM91.64 115.68L92.6299 115.539L92.5019 114.643L91.512 114.784L90.5221 114.925L90.6501 115.821L91.64 115.68ZM91.512 114.784L92.4909 114.989C93.6498 109.442 95.9794 105.512 99.3928 103.051L98.808 102.24L98.2232 101.429C94.2979 104.259 91.7635 108.691 90.5331 114.579L91.512 114.784ZM98.808 102.24L99.3962 103.049C102.918 100.487 107.93 99.144 114.552 99.144V98.144V97.144C107.691 97.144 102.207 98.5315 98.2198 101.431L98.808 102.24ZM114.552 98.144V99.144H148.088V98.144V97.144H114.552V98.144ZM148.088 98.144V99.144C151.933 99.144 156.064 98.6198 160.477 97.5814L160.248 96.608L160.019 95.6346C155.728 96.6442 151.753 97.144 148.088 97.144V98.144ZM160.248 96.608L159.541 97.3151L160.565 98.3391L161.272 97.632L161.979 96.9249L160.955 95.9009L160.248 96.608ZM161.272 97.632L160.318 97.3309C159.818 98.9169 159.233 100.46 158.566 101.962L159.48 102.368L160.394 102.774C161.092 101.204 161.702 99.5898 162.226 97.9331L161.272 97.632ZM159.48 102.368L158.575 101.942C157.89 103.399 157.162 104.983 156.392 106.694L157.304 107.104L158.216 107.514C158.982 105.812 159.705 104.239 160.385 102.794L159.48 102.368ZM157.304 107.104L156.69 106.315L155.538 107.211L156.152 108L156.766 108.789L157.918 107.893L157.304 107.104ZM156.152 108V107H114.424V108V109H156.152V108ZM114.424 108V107C110.719 107 107.69 107.257 105.367 107.794L105.592 108.768L105.817 109.742C107.931 109.255 110.79 109 114.424 109V108ZM105.592 108.768L105.403 107.786C103.026 108.243 100.979 109.212 99.2956 110.709L99.96 111.456L100.624 112.203C102.013 110.969 103.721 110.146 105.781 109.75L105.592 108.768ZM99.96 111.456L99.3198 110.688C97.6893 112.047 95.925 114.087 94.0245 116.765L94.84 117.344L95.6555 117.923C97.5097 115.31 99.1587 113.425 100.6 112.224L99.96 111.456ZM94.84 117.344V116.344H93.944V117.344V118.344H94.84V117.344ZM115.32 157.664L115.545 156.69C113.333 156.179 111.423 155.712 109.814 155.289L109.56 156.256L109.306 157.223C110.939 157.653 112.87 158.125 115.095 158.638L115.32 157.664ZM109.56 156.256L109.766 155.277C108.188 154.945 106.743 154.532 105.431 154.04L105.08 154.976L104.729 155.912C106.147 156.444 107.69 156.884 109.354 157.235L109.56 156.256ZM105.08 154.976L106.022 154.64L105.382 152.848L104.44 153.184L103.498 153.52L104.138 155.312L105.08 154.976ZM104.44 153.184L105.359 153.577C112.232 137.514 116.31 120.423 117.597 102.311L116.6 102.24L115.603 102.169C114.33 120.068 110.302 136.94 103.521 152.791L104.44 153.184ZM116.6 102.24L116.367 103.213L122.255 104.621L122.488 103.648L122.721 102.675L116.833 101.267L116.6 102.24ZM122.488 103.648L121.497 103.516L114.329 157.532L115.32 157.664L116.311 157.796L123.479 103.78L122.488 103.648ZM149.112 157.152L149.094 156.152C144.582 156.233 141.235 154.718 138.897 151.678L138.104 152.288L137.311 152.898C140.093 156.514 144.085 158.242 149.13 158.152L149.112 157.152ZM138.104 152.288L138.904 151.688C136.529 148.521 135.397 144.085 135.647 138.251L134.648 138.208L133.649 138.165C133.387 144.278 134.559 149.228 137.304 152.888L138.104 152.288ZM134.648 138.208L135.647 138.256L137.311 103.952L136.312 103.904L135.313 103.856L133.649 138.16L134.648 138.208ZM136.312 103.904V104.904H144.888V103.904V102.904H136.312V103.904ZM144.888 103.904L143.899 103.753L139.803 130.633L140.792 130.784L141.781 130.935L145.877 104.055L144.888 103.904ZM140.792 130.784L139.802 130.643C139.275 134.331 139.517 137.448 140.652 139.907L141.56 139.488L142.468 139.069C141.555 137.091 141.285 134.405 141.782 130.925L140.792 130.784ZM141.56 139.488L140.652 139.907C141.815 142.427 143.944 144.129 146.894 145.05L147.192 144.096L147.49 143.142C144.979 142.357 143.353 140.987 142.468 139.069L141.56 139.488ZM147.192 144.096L146.929 145.061C149.907 145.873 153.711 146.036 158.294 145.604L158.2 144.608L158.106 143.612C153.644 144.033 150.109 143.855 147.455 143.131L147.192 144.096ZM158.2 144.608L157.441 145.259L158.209 146.155L158.968 145.504L159.727 144.853L158.959 143.957L158.2 144.608ZM158.968 145.504L157.97 145.442C157.9 146.564 157.359 148.017 156.204 149.831L157.048 150.368L157.892 150.905C159.126 148.965 159.866 147.175 159.966 145.566L158.968 145.504ZM157.048 150.368L156.216 149.813C155.066 151.538 153.757 153.051 152.288 154.357L152.952 155.104L153.616 155.851C155.219 154.427 156.64 152.782 157.88 150.923L157.048 150.368ZM152.952 155.104L152.267 154.376C150.868 155.692 149.829 156.152 149.112 156.152V157.152V158.152C150.614 158.152 152.135 157.246 153.637 155.832L152.952 155.104Z" fill="#6750A4" mask="url(#path-4-outside-1_1_2)"/>
</svg>
